<svg width="96" height="66" xmlns="http://www.w3.org/2000/svg">
 <defs>
  <style>.cls-1{fill:#fff;}</style>
 </defs>
 <title>images</title>
 <g>
  <title>background</title>
  <rect fill="none" id="canvas_background" height="68" width="98" y="-1" x="-1"/>
 </g>
 <g>
  <title>Layer 1</title>
  <g stroke="null" id="svg_8">
   <path stroke="null" id="svg_1" d="m74.476575,50.010118l-5.680602,0l0,-5.104597l8.401729,0a2.423194,2.423194 0 0 0 2.48278,-2.48278l0,-0.873939a31.898763,31.898763 0 0 0 -29.137911,-31.779589l0,-3.27727a2.562229,2.562229 0 0 0 0.119173,-5.124459l-5.124459,0a2.562229,2.562229 0 0 0 -0.119173,5.124459l0,3.27727a31.958349,31.958349 0 0 0 -29.435845,31.779589l0,0.873939a2.542367,2.542367 0 0 0 2.641678,2.48278l7.944897,0l0,5.104597l-4.905974,0a7.209994,7.209994 0 0 0 -7.289443,7.110683l0,5.601153a2.721127,2.721127 0 0 0 2.641678,2.661541l62.089373,0a2.582092,2.582092 0 0 0 2.562229,-2.661541l0,-5.601153a7.051096,7.051096 0 0 0 -7.190132,-7.110683zm-29.39612,-30.647441a2.562229,2.562229 0 0 1 0.655454,5.084734a17.597948,17.597948 0 0 0 -13.029632,8.898285a2.582092,2.582092 0 0 1 -2.264296,1.350633a2.502643,2.502643 0 0 1 -1.211597,-0.317796a2.562229,2.562229 0 0 1 -1.032837,-3.475893a22.901167,22.901167 0 0 1 16.882907,-11.539963zm-13.426876,25.542845l32.017936,0l0,5.104597l-32.017936,0l0,-5.104597z" class="cls-1"/>
   <path stroke="null" id="svg_2" d="m20.292376,9.093897a2.601954,2.601954 0 0 0 1.986224,0.913663a2.502643,2.502643 0 0 0 1.648566,-0.61573a2.562229,2.562229 0 0 0 0.297934,-3.595066l-3.297132,-3.972449a2.562229,2.562229 0 0 0 -3.972449,3.297132l3.336857,3.972449z" class="cls-1"/>
   <path stroke="null" id="svg_3" d="m15.306953,19.700335a2.542367,2.542367 0 0 0 -0.933525,-3.495755l-4.42928,-2.462918a2.562229,2.562229 0 1 0 -2.562229,4.42928l4.42928,2.562229a2.462918,2.462918 0 0 0 1.271184,0.35752a2.582092,2.582092 0 0 0 2.224571,-1.390357z" class="cls-1"/>
   <path stroke="null" id="svg_4" d="m8.672963,29.353385l-5.04501,-0.893801a2.562229,2.562229 0 0 0 -0.873939,5.144321l5.025148,0.893801l0.456832,0a2.562229,2.562229 0 0 0 0.436969,-5.084734l0,-0.059587z" class="cls-1"/>
   <path stroke="null" id="svg_5" d="m95.570278,30.247186a2.562229,2.562229 0 0 0 -2.959474,-2.085536l-5.04501,0.893801a2.562229,2.562229 0 0 0 0.436969,5.084734l0.456832,0l5.04501,-0.893801a2.542367,2.542367 0 0 0 2.065673,-2.999199z" class="cls-1"/>
   <path stroke="null" id="svg_6" d="m89.611605,14.357391a2.542367,2.542367 0 0 0 -3.495755,-0.933525l-4.449142,2.562229a2.562229,2.562229 0 0 0 -0.953388,3.495755a2.582092,2.582092 0 0 0 2.224571,1.271184a2.562229,2.562229 0 0 0 1.291046,-0.337658l4.42928,-2.562229a2.542367,2.542367 0 0 0 0.953388,-3.495755z" class="cls-1"/>
   <path stroke="null" id="svg_7" d="m72.132831,9.272657a2.542367,2.542367 0 0 0 1.648566,0.595867a2.48278,2.48278 0 0 0 1.986224,-0.913663l3.297132,-3.972449a2.562229,2.562229 0 1 0 -3.972449,-3.297132l-3.297132,3.972449a2.542367,2.542367 0 0 0 0.337658,3.614928z" class="cls-1"/>
  </g>
 </g>
</svg>