<?xml version="1.0" encoding="utf-8"?>
<!-- Generator: Adobe Illustrator 23.0.3, SVG Export Plug-In . SVG Version: 6.00 Build 0)  -->
<svg version="1.1" xmlns="http://www.w3.org/2000/svg" xmlns:xlink="http://www.w3.org/1999/xlink" x="0px" y="0px"
	 viewBox="0 0 185 108.4" style="enable-background:new 0 0 185 108.4;" xml:space="preserve">
<style type="text/css">
	.st0{fill:#1D2E43;}
	.st1{fill:#FFFFFF;}
	.st2{opacity:0.5;fill:#333F50;enable-background:new    ;}
	.st3{fill:#4394D3;}
	.st4{fill:#FCC010;}
	.st5{fill:#EC407A;}
	.st6{fill:#CB3A6B;}
</style>
<title>images</title>
<path class="st0" d="M32.3,0H167c2.7,0,4.8,2.2,4.8,4.8v98.7c0,2.7-2.2,4.8-4.8,4.8H32.3c-2.7,0-4.8-2.2-4.8-4.8V4.8
	C27.5,2.2,29.6,0,32.3,0z"/>
<rect x="39.8" y="8.5" class="st1" width="119.8" height="91.4"/>
<path class="st2" d="M166.9,48.1c-0.1-0.7-0.7-1.2-1.4-1.2c-0.6,0.1-1.1,0.5-1.2,1.2v13.2c-0.1,0.7,0.5,1.3,1.2,1.4
	c0.7,0.1,1.3-0.5,1.4-1.2c0-0.1,0-0.2,0-0.2V48.1z"/>
<path class="st2" d="M31.4,51.3H36c0.4,0,0.7,0.3,0.7,0.7v4.6c0,0.4-0.3,0.7-0.7,0.7h-4.6c-0.4,0-0.7-0.3-0.7-0.7v-4.6
	C30.8,51.6,31,51.3,31.4,51.3z"/>
<path id="bulle_bleu" class="st3" d="M175.9,19.9h-72.7c-5,0-9,4-9.1,9v27.2c0,5,4.1,9,9.1,9h7.5v9.4l13.5-9.4h51.7c5,0,9-4,9.1-9
	V29C185,24,180.9,20,175.9,19.9z"/>
<polygon id="etoile_5_bleu" class="st4" points="170.1,35.5 172.1,39.6 176.7,40.3 173.4,43.5 174.2,48 170.1,45.9 166,48 
	166.8,43.5 163.5,40.3 168.1,39.6 "/>
<polygon id="etoile_4_bleu" class="st4" points="155.2,35.5 157.2,39.6 161.8,40.3 158.5,43.5 159.3,48 155.2,45.9 151.1,48 
	151.9,43.5 148.6,40.3 153.2,39.6 "/>
<polygon id="etoile_3_bleu" class="st4" points="139.8,35.5 141.8,39.6 146.3,40.3 143,43.5 143.8,48 139.8,45.9 135.7,48 
	136.4,43.5 133.2,40.3 137.7,39.6 "/>
<polygon id="etoile_2_bleu" class="st4" points="124.4,35.5 126.5,39.6 131,40.3 127.7,43.5 128.5,48 124.4,45.9 120.3,48 
	121.1,43.5 117.8,40.3 122.4,39.6 "/>
<polygon id="etoile_1_bleu" class="st4" points="109.1,35.5 111.1,39.6 115.7,40.3 112.4,43.5 113.2,48 109.1,45.9 105,48 
	105.8,43.5 102.5,40.3 107.1,39.6 "/>
<path id="bulle_rose" class="st5" d="M9,38.6h72.7c5,0,9,4,9,9v27.2c0,5-4,9-9,9.1h-7.5v9.4l-13.5-9.4H9c-5,0-9-4.1-9-9.1V47.6
	C0,42.7,4,38.6,9,38.6z"/>
<polygon id="etoile_5_rose" class="st6" points="75.9,54.1 73.8,58.3 69.3,58.9 72.6,62.1 71.8,66.7 75.9,64.5 79.9,66.7 79.1,62.1 
	82.4,58.9 77.9,58.3 "/>
<polygon id="etoile_4_rose" class="st4" points="60.5,54.1 58.5,58.3 53.9,58.9 57.2,62.1 56.5,66.7 60.5,64.5 64.6,66.7 63.8,62.1 
	67.1,58.9 62.6,58.3 "/>
<polygon id="etoile_3_rose" class="st4" points="45.2,54.1 43.2,58.3 38.6,58.9 41.9,62.1 41.1,66.7 45.2,64.5 49.3,66.7 48.5,62.1 
	51.8,58.9 47.2,58.3 "/>
<polygon id="etoile_2_rose" class="st4" points="29.7,54.1 27.7,58.3 23.1,58.9 26.4,62.1 25.7,66.7 29.7,64.5 33.8,66.7 33,62.1 
	36.3,58.9 31.8,58.3 "/>
<polygon id="etoile_1_rose" class="st4" points="14.9,54.1 12.8,58.3 8.2,58.9 11.5,62.1 10.8,66.7 14.9,64.5 18.9,66.7 18.1,62.1 
	21.4,58.9 16.9,58.3 "/>
</svg>
