<?xml version="1.0" encoding="utf-8"?>
<!-- Generator: Adobe Illustrator 23.0.3, SVG Export Plug-In . SVG Version: 6.00 Build 0)  -->
<svg version="1.1" xmlns="http://www.w3.org/2000/svg" xmlns:xlink="http://www.w3.org/1999/xlink" x="0px" y="0px"
	 viewBox="0 0 167.1 155.5" style="enable-background:new 0 0 167.1 155.5;" xml:space="preserve">
<style type="text/css">
	.st0{opacity:0.5;}
	.st1{fill:#D1B2B4;}
	.st2{opacity:0.5;fill:#D1B2B4;enable-background:new    ;}
	.st3{fill:#EF9405;}
	.st4{fill:#FFFFFF;}
	.st5{fill:#90CAF9;}
	.st6{fill:#FFAB91;}
	.st7{fill:#B39DDB;}
	.st8{fill:#7986CB;}
	.st9{fill:#FFF176;}
	.st10{fill:#F48FB1;}
	.st11{fill:#FFB296;}
	.st12{fill:#9D5D60;}
	.st13{fill:#1F193D;}
	.st14{fill:#376392;}
	.st15{fill:#0F0F2B;}
	.st16{fill:#83E0E7;}
	.st17{fill:#2E2451;}
	.st18{fill:#EF5350;}
	.st19{fill:#5C331D;}
	.st20{fill:#995B60;}
</style>
<title>images</title>
<g>
	<g>
		<g class="st0">
			<rect x="11.7" y="148.9" class="st1" width="145.3" height="2"/>
		</g>
		<g class="st0">
			<rect x="37.4" y="153.5" class="st1" width="76" height="2"/>
		</g>
		<g class="st0">
			<rect x="116.9" y="153.5" class="st1" width="14.4" height="2"/>
		</g>
		<rect x="29.1" y="153.5" class="st2" width="5.6" height="2"/>
		<polygon class="st3" points="71.4,26.5 71.7,26.6 71.3,26.7 		"/>
		<path class="st4" d="M82.9,26.6l-0.4-1.3c-0.1-0.3-0.2-0.5-0.5-0.6l-1.1-0.4L82,24c0.3-0.1,0.4-0.3,0.5-0.6l0.4-1.3l0.4,1.3
			c0.1,0.3,0.2,0.5,0.5,0.6l1.1,0.4l-1.1,0.4c-0.3,0.1-0.4,0.3-0.5,0.6L82.9,26.6z"/>
		<path class="st4" d="M83.6,6.3l-0.2-0.8c0-0.2-0.2-0.3-0.3-0.4l-0.7-0.2l0.7-0.2c0.2-0.1,0.3-0.2,0.3-0.4l0.2-0.8l0.2,0.8
			c0,0.2,0.2,0.3,0.3,0.4l0.7,0.2l-0.7,0.2c-0.2,0.1-0.3,0.2-0.3,0.4L83.6,6.3z"/>
		<path class="st4" d="M62.2,14.8l-0.6-2.2c-0.1-0.5-0.4-0.8-0.9-1l-2-0.7l2-0.7c0.4-0.2,0.8-0.5,0.9-1l0.6-2.2l0.6,2.2
			c0.1,0.5,0.4,0.8,0.9,1l2,0.7l-2,0.7c-0.4,0.2-0.8,0.5-0.9,1L62.2,14.8z"/>
		<path class="st4" d="M49.7,17.9L50,19c0.1,0.2,0.3,0.4,0.5,0.5l1.1,0.3l-1.1,0.3c-0.2,0.1-0.4,0.3-0.5,0.5l-0.3,1.1l-0.3-1.1
			c-0.1-0.2-0.3-0.4-0.5-0.5l-1.1-0.3l1.1-0.3c0.2-0.1,0.4-0.3,0.5-0.5L49.7,17.9z"/>
		<polygon class="st5" points="26.8,73.4 28.5,68.1 31.7,69 29.6,75 		"/>
		<polygon class="st6" points="39.9,107.8 43.2,106.4 44.4,109.2 42.2,111.5 		"/>
		<polygon class="st6" points="124.7,56 128,54.5 129.2,57.4 127,59.7 		"/>
		<path class="st7" d="M155.7,36.1l1.6-0.2c-0.3,1.6-0.8,3.2-1.4,4.8l-1.9,0.4C154.9,39.5,155.4,37.8,155.7,36.1z"/>
		<path class="st7" d="M1.7,98.3l1.6-0.2c-0.3,1.6-0.8,3.2-1.4,4.8L0,103.2C0.8,101.7,1.4,100,1.7,98.3z"/>
		<path class="st7" d="M72.2,0.2L73.8,0c-0.3,1.6-0.8,3.2-1.4,4.8l-1.9,0.4C71.4,3.6,71.9,1.9,72.2,0.2z"/>
		<path class="st8" d="M26.2,23l4.8,4l1.3-1.7c-1.8-0.7-3.3-1.9-4.3-3.5L26.2,23z"/>
		<path class="st8" d="M160.9,71.9l4.9,4l1.3-1.7c-1.8-0.7-3.3-1.9-4.3-3.5L160.9,71.9z"/>
		<polygon class="st9" points="137.1,85.3 140.3,82.5 138.2,81.3 135.1,83.3 		"/>
		<polygon class="st9" points="65.1,26.5 68.3,23.6 66.2,22.4 63.1,24.4 		"/>
		<path class="st6" d="M145.4,125.4l-3.8,4.4l1.9,1.6c1.6-1,3-2.4,4-4L145.4,125.4z"/>
		<path class="st6" d="M45.9,33.9l1.4,0.3c-0.4,1.8-0.6,3.7-0.7,5.6L45.5,39L45.9,33.9z"/>
		<polygon class="st10" points="134.7,0 134,5.6 135.4,6.4 136.2,0 		"/>
		<polygon class="st10" points="91,9.3 90.3,14.9 91.7,15.7 92.5,9.3 		"/>
		<polygon class="st10" points="49.1,139.9 44.2,142.7 44.4,144.2 50,141.1 		"/>
		<polygon class="st5" points="130.5,37.4 129.2,39.7 131.5,43.1 132.5,40.7 		"/>
		<polygon class="st7" points="24.4,121.4 23,123.7 25.4,127.1 26.4,124.7 		"/>
		<polygon class="st7" points="140,100.6 138.7,102.9 141,106.3 142,103.9 		"/>
		<path class="st8" d="M119.9,96.8c0.4,0.9,1,1.8,1.6,2.7c-0.8,0-1.6-0.2-2.4-0.7c-0.6-0.5-0.9-1.2-1-1.9L119.9,96.8z"/>
		<path class="st4" d="M144.5,53.1l0.6,4c0.2,1,0.9,1.7,1.9,1.9l3.9,0.7l-3.9,0.6c-1,0.2-1.7,0.9-1.9,1.9l-0.6,4l-0.6-4
			c-0.2-1-0.9-1.7-1.9-1.9l-4-0.6l4-0.7c1-0.2,1.7-0.9,1.9-1.9L144.5,53.1z"/>
		<path class="st4" d="M112.5,11.5l0.6,4c0.2,1,0.9,1.7,1.9,1.9l4,0.6l-4,0.7c-1,0.2-1.7,0.9-1.9,1.9l-0.6,4l-0.6-4
			c-0.2-1-0.9-1.7-1.9-1.9l-4-0.7l4-0.6c1-0.2,1.7-0.9,1.9-1.9L112.5,11.5z"/>
		<path class="st4" d="M144.5,17.5l0.4,2.6c0.1,0.7,0.6,1.2,1.3,1.3l2.6,0.4l-2.6,0.4c-0.7,0.1-1.2,0.6-1.3,1.3l-0.4,2.6l-0.4-2.6
			c-0.1-0.6-0.6-1.2-1.3-1.3l-2.6-0.4l2.6-0.4c0.7-0.1,1.2-0.6,1.3-1.3L144.5,17.5z"/>
		<path class="st4" d="M159.3,92.1l0.4,2.1c0.1,0.5,0.5,0.9,1,1l2.1,0.3l-2.1,0.3c-0.5,0.1-0.9,0.5-1,1l-0.4,2.1l-0.4-2.1
			c-0.1-0.5-0.5-0.9-1-1l-2.1-0.3l2.1-0.3c0.5-0.1,0.9-0.5,1-1L159.3,92.1z"/>
		<path class="st4" d="M6.8,49.5l0.3,2.2c0.1,0.5,0.5,0.9,1,1l2.2,0.4l-2.2,0.3c-0.5,0.1-0.9,0.5-1,1l-0.3,2.2l-0.3-2.2
			c-0.1-0.5-0.5-0.9-1-1l-2.2-0.3l2.2-0.3c0.5-0.1,0.9-0.5,1-1L6.8,49.5z"/>
		<path class="st4" d="M43.8,80.7l0.4,2.6c0.1,0.6,0.6,1.2,1.3,1.3l2.6,0.4l-2.6,0.4c-0.6,0.1-1.2,0.6-1.3,1.3l-0.4,2.6l-0.4-2.6
			c-0.1-0.7-0.6-1.2-1.3-1.3L39.5,85l2.6-0.4c0.6-0.1,1.2-0.6,1.3-1.3L43.8,80.7z"/>
		<path class="st4" d="M34.6,43.6l0.6,3.4c0.1,0.8,0.8,1.5,1.7,1.6l3.4,0.6l-3.4,0.6c-0.8,0.1-1.5,0.8-1.7,1.7l-0.6,3.4l-0.5-3.4
			c-0.1-0.8-0.8-1.5-1.6-1.7L29,49.2l3.4-0.6c0.8-0.1,1.5-0.8,1.6-1.6L34.6,43.6z"/>
		<path class="st4" d="M17.3,92.1l0.2,1.2c0.1,0.3,0.3,0.5,0.6,0.6l1.2,0.2l-1.2,0.2c-0.3,0-0.6,0.3-0.6,0.6l-0.2,1.2L17.1,95
			c0-0.3-0.3-0.5-0.6-0.6l-1.2-0.2l1.2-0.2c0.3-0.1,0.5-0.3,0.6-0.6L17.3,92.1z"/>
		<path class="st4" d="M45.8,120.3l0.2,1.2c0,0.3,0.3,0.6,0.6,0.6l1.2,0.2l-1.2,0.2c-0.3,0-0.6,0.3-0.6,0.6l-0.2,1.2l-0.2-1.2
			c0-0.3-0.3-0.6-0.6-0.6l-1.2-0.2l1.2-0.2c0.3,0,0.6-0.3,0.6-0.6L45.8,120.3z"/>
		<path class="st4" d="M121.5,74.3l0.2,1.2c0.1,0.3,0.3,0.5,0.6,0.6l1.2,0.2l-1.2,0.2c-0.3,0-0.6,0.3-0.6,0.6l-0.2,1.2l-0.2-1.2
			c0-0.3-0.3-0.5-0.6-0.6l-1.2-0.2l1.2-0.2c0.3-0.1,0.5-0.3,0.6-0.6L121.5,74.3z"/>
		<path class="st4" d="M126.9,110.2l0.4,2.4c0.1,0.6,0.6,1,1.1,1.1l2.4,0.4l-2.4,0.4c-0.6,0.1-1,0.6-1.1,1.1l-0.4,2.4l-0.4-2.4
			c-0.1-0.6-0.6-1-1.1-1.1l-2.3-0.4l2.4-0.4c0.6-0.1,1-0.6,1.1-1.1L126.9,110.2z"/>
		<g id="corps">
			<rect x="66.1" y="58.8" class="st11" width="6.5" height="6.8"/>
			<polygon class="st12" points="66.1,65.6 72.5,61.4 72.5,58.8 66.1,58.8 			"/>
			<path class="st13" d="M64.1,43.7c0,1.7-1.4,3.1-3.1,3.1s-3.1-1.4-3.1-3.1s1.4-3.1,3.1-3.1S64.1,42,64.1,43.7L64.1,43.7z"/>
			<path class="st11" d="M68.1,61.4L68.1,61.4c-3.9,0-7.1-3.2-7.1-7.1c0,0,0,0,0,0v-11h14.2v11C75.2,58.3,72,61.4,68.1,61.4z"/>
			<path class="st13" d="M75.6,37.8h-11v-1.4H64c-2.3,0-4.2,1.9-4.2,4.2c0,0.1,0,0.1,0,0.2c0.2,2.3,2.1,4,4.3,4h6.6
				c1.2,0,2.2,0.7,2.6,1.9c0.1,0.3,0.2,0.6,0.1,0.9v2.3h1.8v-4.1c2.3-1.8,2.7-5.1,1-7.3C76,38.1,75.8,37.9,75.6,37.8L75.6,37.8z"/>
			<circle class="st11" cx="74.6" cy="51.5" r="2.1"/>
			<path class="st4" d="M66.4,56.4L66.4,56.4h3.3c0,1.1-0.9,1.9-1.9,1.9h-2.6c-1.1,0-1.9-0.9-1.9-1.9c0,0,0,0,0,0L66.4,56.4z"/>
			<rect x="72.6" y="96.2" class="st14" width="4.2" height="51"/>
			<path class="st15" d="M76.8,144.9v3.9h-9.7c0-0.3,0-0.5,0.1-0.8c0.3-1.1,1.4-1.9,2.6-1.9c1.9,0,1.8-0.6,2.9-1.2L76.8,144.9z"/>
			<path class="st4" d="M76.8,148.1v0.8h-9.7c0-0.3,0-0.5,0.1-0.8H76.8z"/>
			<path class="st4" d="M73.9,145.6h-1.7c-0.1,0-0.1-0.1-0.1-0.1c0-0.1,0.1-0.1,0.1-0.1l0,0h1.7c0.1,0,0.1,0.1,0.1,0.1
				C74,145.5,74,145.6,73.9,145.6z"/>
			<path class="st4" d="M72.9,146.1h-1.4c-0.1,0-0.1,0-0.1-0.1c0,0,0,0,0,0c0-0.1,0-0.1,0.1-0.1l0,0h1.4c0.1,0,0.1,0,0.1,0.1
				c0,0,0,0,0,0C73.1,146,73,146.1,72.9,146.1z"/>
			<path class="st4" d="M72,146.6h-1.1c-0.1,0-0.1-0.1-0.1-0.1s0.1-0.1,0.1-0.1H72c0.1,0,0.1,0.1,0.1,0.1S72,146.6,72,146.6z"/>
			<rect x="62" y="96.2" class="st14" width="4.2" height="51"/>
			<path class="st16" d="M79.3,72.4c0-3.7-3-6.7-6.7-6.7h-6.5c-3.7,0-6.7,3-6.7,6.7c0,0,0,0,0,0v23.8h20L79.3,72.4z"/>
			<path class="st15" d="M66.1,144.9v3.9h-9.7c0-0.3,0-0.5,0.1-0.8c0.3-1.1,1.4-1.9,2.6-1.9c1.9,0,1.8-0.6,2.8-1.2L66.1,144.9z"/>
			<path class="st4" d="M66.1,148.1v0.8h-9.7c0-0.3,0-0.5,0.1-0.8H66.1z"/>
			<path class="st4" d="M63.2,145.6h-1.7c-0.1,0-0.1-0.1-0.1-0.1c0-0.1,0.1-0.1,0.1-0.1l0,0h1.7c0.1,0,0.1,0.1,0.1,0.1
				C63.3,145.5,63.2,145.6,63.2,145.6z"/>
			<path class="st4" d="M62.2,146.1h-1.4c-0.1,0-0.1,0-0.1-0.1c0,0,0,0,0,0c0-0.1,0-0.1,0.1-0.1l0,0h1.4c0.1,0,0.1,0,0.1,0.1
				c0,0,0,0,0,0C62.4,146,62.3,146.1,62.2,146.1z"/>
			<path class="st4" d="M61.2,146.6h-1.1c-0.1,0-0.1-0.1-0.1-0.1s0.1-0.1,0.1-0.1l0,0h1.1c0.1,0,0.1,0.1,0.1,0.1
				S61.3,146.6,61.2,146.6z"/>
			<polyline class="st4" points="72.6,65.5 68.1,70.5 66,65.5 			"/>
			<path class="st16" d="M61.6,73.7c-0.7,0.2-1.5-0.1-1.9-0.7c-8.3-11.2-10.7-23.5-7.4-37.5c0.2-1,1.2-1.6,2.2-1.4
				c1,0.2,1.6,1.2,1.4,2.2l0,0c-3.1,12.9-0.9,24.1,6.7,34.4c0.6,0.8,0.4,2-0.4,2.6C62,73.5,61.8,73.6,61.6,73.7z"/>
			<path class="st16" d="M78.6,73.3c-0.6,0.1-1.2,0-1.6-0.4c-0.8-0.7-0.9-1.8-0.2-2.6c0,0,0,0,0,0c4.8-5.5,6.5-18.7-0.2-35.8
				c-0.4-1,0.1-2.1,1-2.5c1-0.4,2.1,0.1,2.5,1c6.5,16.3,6.3,31.8-0.4,39.6C79.4,73,79,73.2,78.6,73.3z"/>
			<path class="st11" d="M78.7,35.6c-0.9,0.2-1.8-0.3-2.2-1.2L75.2,31c-0.4-1,0.1-2,1.1-2.4c1-0.4,2,0.1,2.4,1.1l0,0l1.4,3.5
				c0.4,1-0.1,2-1.1,2.4c0,0,0,0,0,0L78.7,35.6z"/>
			<path class="st11" d="M54.5,37.7c-0.3,0.1-0.5,0.1-0.8,0c-1-0.2-1.7-1.2-1.5-2.2c0,0,0,0,0,0l1-4.7c0.2-1,1.2-1.7,2.2-1.5
				c1,0.2,1.7,1.2,1.5,2.2l0,0l-1,4.7C55.8,37,55.2,37.5,54.5,37.7z"/>
			<path class="st14" d="M79.1,95.4v1.4c0.1,3.7-2.9,6.7-6.6,6.8c0,0,0,0,0,0h-6.4c-3.7,0-6.7-3.1-6.6-6.8c0,0,0,0,0,0v-1.4H79.1z"
				/>
		</g>
		<path class="st17" d="M71.3,51.1c0,0.3-0.3,0.6-0.6,0.6c-0.3,0-0.6-0.3-0.6-0.6c0-0.3,0.3-0.6,0.6-0.6c0,0,0,0,0,0
			C71.1,50.5,71.3,50.8,71.3,51.1z"/>
		<path class="st17" d="M63.5,51.1c0,0.3-0.3,0.6-0.6,0.6s-0.6-0.3-0.6-0.6c0-0.3,0.3-0.6,0.6-0.6c0,0,0,0,0,0
			C63.2,50.5,63.5,50.8,63.5,51.1z"/>
		<g id="corps-2">
			<path class="st18" d="M108.8,74.2c0.7,0,1.4-0.4,1.7-1.1c5.5-12.8,5-25.3-1.5-38.2c-0.5-0.9-1.6-1.3-2.5-0.8s-1.3,1.6-0.8,2.5
				l0,0c6,11.8,6.4,23.3,1.4,35.1c-0.4,0.9,0,2,0.9,2.4c0,0,0,0,0,0C108.3,74.2,108.6,74.2,108.8,74.2z"/>
			<polygon class="st19" points="106.5,52.7 106.5,72.9 92.9,75.9 88.6,56.7 			"/>
			
				<rect x="99.1" y="61.2" transform="matrix(0.9758 -0.2188 0.2188 0.9758 -11.872 23.6546)" class="st11" width="3.5" height="8.4"/>
			<polygon class="st20" points="98.7,64 102.5,65.1 101.9,62.3 98.2,61.9 			"/>
			<path class="st11" d="M100.9,62.6L100.9,62.6c4-0.9,6.6-4.9,5.7-9c0,0,0,0,0,0L104,42.2l-14.7,3.3l2.6,11.4
				C92.8,61,96.8,63.5,100.9,62.6C100.9,62.6,100.9,62.6,100.9,62.6z"/>
			<path class="st19" d="M90.7,51.4l1.1,5.1l-3.1,0.7L87,49.1c-0.6-2.7,0-5.5,1.5-7.7c0.5,1.9,1.9,3.4,3.8,4.1
				C92.2,46.7,93.3,49.7,90.7,51.4z"/>
			<path class="st11" d="M89.5,53.9c0.3,1.2,1.5,1.9,2.7,1.7c1.2-0.3,1.9-1.5,1.7-2.7c-0.3-1.2-1.5-1.9-2.6-1.7
				C90,51.5,89.3,52.7,89.5,53.9C89.5,53.9,89.5,53.9,89.5,53.9z"/>
			<path class="st19" d="M94.6,37.1L94.6,37.1c4.8-1.1,9.7,1.6,11.5,6.3c0.3,0.8,0.4,1.6,0.4,2.4v7.4l0,0l-1.3-5.6
				c-0.5-2.1-2.5-3.5-4.7-3c0,0,0,0,0,0l-5,1.1c-3.2,0.6-6.3-1.2-7.2-4.3C89.8,39.1,92.1,37.6,94.6,37.1z"/>
			<path class="st19" d="M86.7,47.4v19.5c0,3.6,1.3,5.4,2.8,5.4h5.5L86.7,47.4z"/>
			<path class="st15" d="M103.3,145.9h3.8c0.9,0.6,0.8,1.2,2.5,1.2c1.1,0,2,0.8,2.3,1.9h-4.1c-1,0-0.8-0.5-1.5-0.5h-0.8v0.5h-2.2
				L103.3,145.9z"/>
			<path class="st15" d="M98.7,145.9h-3.8c-0.9,0.6-0.8,1.2-2.5,1.2c-1.1,0-2,0.8-2.3,1.9h4.1c1,0,0.8-0.5,1.5-0.5h0.8v0.5h2.2
				V145.9z"/>
			<rect x="103.3" y="101.8" class="st13" width="3.7" height="44.1"/>
			<rect x="95" y="101.8" class="st13" width="3.7" height="44.1"/>
			<path class="st18" d="M91.2,73.3V99h19.6V73.3c0-2.9-1.7-5.4-4.2-6.6l0,0c-0.8-0.4-1.8-0.6-2.7-0.7h-5.4c-1.3,0-2.6,0.3-3.7,1
				c-0.4,0.2-0.8,0.5-1.1,0.8C92.1,69.3,91.2,71.2,91.2,73.3z"/>
			<path class="st4" d="M94.8,67l3.2,2.5l4.8,8l1.7-7.6l2.1-3.2l0,0c-0.8-0.4-1.8-0.6-2.7-0.7h-5.4c-0.2,0-0.3,0-0.5,0
				C96.9,66.1,95.8,66.5,94.8,67z"/>
			<path class="st11" d="M98,66l4.8,9.4l0.7-9.4h-5C98.3,66,98.2,66,98,66z"/>
			<path class="st20" d="M99.1,58.8c1.7,0.1,3.3-0.6,4.6-1.8c0.1-0.1,0.1-0.3,0-0.4c-0.1-0.1-0.3-0.1-0.4,0
				c-1.1,1.1-2.6,1.7-4.2,1.6v0.3V58.8z"/>
			<path class="st4" d="M100.6,56.9L100.6,56.9l3.4-0.8c0.3,1.1-0.4,2.2-1.5,2.5l-1.3,0.3h-0.1l-1.3,0.3c-1.1,0.3-2.2-0.4-2.5-1.5
				L100.6,56.9z"/>
			<path class="st18" d="M93.5,75.2c0.6,0,1.2-0.3,1.5-0.8c0.6-0.8,0.4-2-0.4-2.6c0,0,0,0,0,0c-5.9-4.2-10.6-16.7-8-34.8
				c0.2-1-0.5-2-1.5-2.1c-1-0.2-2,0.5-2.1,1.5c0,0,0,0,0,0.1c-2.5,17.4,1.2,32.4,9.5,38.4C92.7,75,93.1,75.2,93.5,75.2z"/>
			<path class="st11" d="M84.7,38.5c0.9,0,1.7-0.7,1.9-1.6l0.5-3.7c0.1-1-0.6-2-1.6-2.1c-1-0.1-2,0.6-2.1,1.6l-0.5,3.7
				c-0.1,1,0.6,2,1.6,2.1L84.7,38.5z"/>
			<path class="st11" d="M107.4,37.6c0.3,0,0.5-0.1,0.8-0.2c0.9-0.4,1.3-1.5,0.9-2.5c0,0,0,0,0,0l-2-4.3c-0.4-0.9-1.5-1.3-2.5-0.9
				c-0.9,0.4-1.3,1.5-0.9,2.5l2,4.3C106,37.2,106.7,37.6,107.4,37.6z"/>
			<path class="st13" d="M110.8,96.2v1.4c0.1,3.7-2.9,6.7-6.6,6.8c0,0,0,0,0,0h-6.4c-3.7,0-6.6-3.1-6.6-6.8c0,0,0,0,0,0v-1.4H110.8z
				"/>
		</g>
		<path class="st19" d="M95.1,52.6c0.1,0.4,0.4,0.6,0.8,0.5c0.4-0.1,0.6-0.4,0.5-0.8c-0.1-0.4-0.4-0.6-0.8-0.5c0,0,0,0,0,0
			C95.2,51.9,95,52.3,95.1,52.6z"/>
		<path class="st19" d="M103.2,50.8c0.1,0.4,0.4,0.6,0.8,0.5c0,0,0,0,0,0c0.4-0.1,0.6-0.4,0.5-0.8c0,0,0,0,0,0
			c-0.1-0.4-0.4-0.6-0.8-0.5C103.4,50.1,103.2,50.4,103.2,50.8L103.2,50.8z"/>
	</g>
</g>
</svg>
